<?xml version="1.0" standalone="no"?>
<!DOCTYPE svg PUBLIC "-//W3C//DTD SVG 20010904//EN"
 "http://www.w3.org/TR/2001/REC-SVG-20010904/DTD/svg10.dtd">
<svg version="1.0" xmlns="http://www.w3.org/2000/svg"
 width="966.000000pt" height="966.000000pt" viewBox="0 0 966.000000 966.000000"
 preserveAspectRatio="xMidYMid meet">
<metadata>
Created by potrace 1.14, written by Peter Selinger 2001-2017
</metadata>
<g transform="translate(0.000000,966.000000) scale(0.100000,-0.100000)"
fill="#000000" stroke="none">
<path d="M4448 8315 c-2 -2 -55 -6 -118 -9 -63 -4 -131 -8 -150 -10 -19 -3
-71 -7 -115 -11 -44 -3 -87 -8 -95 -10 -8 -2 -44 -7 -80 -10 -71 -7 -93 -10
-160 -20 -45 -7 -51 -8 -125 -19 -22 -3 -51 -8 -65 -11 -13 -2 -42 -7 -65 -10
-22 -3 -47 -8 -55 -10 -8 -2 -31 -7 -50 -10 -73 -12 -366 -76 -390 -85 -14 -5
-36 -12 -50 -14 -93 -17 -525 -151 -731 -227 -119 -43 -302 -117 -379 -151
-25 -12 -65 -29 -89 -40 -111 -47 -222 -100 -416 -199 -222 -112 -272 -139
-425 -227 -52 -30 -108 -62 -125 -72 -223 -128 -698 -442 -724 -479 -10 -14
-23 -40 -29 -58 -12 -35 -12 -1226 0 -1238 4 -4 78 44 165 108 273 198 785
537 813 537 4 0 10 3 12 8 4 8 10 12 228 136 561 320 998 516 1555 699 192 64
385 123 429 131 12 3 55 13 96 24 84 22 401 89 452 96 18 2 76 11 128 20 111
18 164 24 325 41 39 3 86 8 106 11 201 21 719 21 894 -1 17 -2 66 -6 110 -10
44 -4 88 -9 99 -11 10 -2 44 -6 75 -10 31 -3 63 -7 71 -9 8 -1 35 -6 60 -10
25 -4 54 -9 65 -11 11 -2 47 -9 80 -15 276 -49 689 -172 992 -295 464 -189
877 -448 1159 -729 121 -121 117 -95 118 -669 1 -259 -1 -487 -4 -507 l-5 -35
-285 213 c-157 117 -323 239 -369 271 -46 31 -107 73 -135 92 -213 146 -489
287 -771 395 -38 14 -87 33 -108 42 -20 9 -40 13 -43 10 -3 -3 1 -48 10 -99
14 -87 18 -112 31 -228 6 -56 7 -356 1 -390 -3 -14 -7 -45 -10 -70 -11 -94
-55 -274 -85 -345 -5 -11 -17 -40 -27 -65 -86 -208 -265 -428 -474 -581 -125
-92 -172 -118 -395 -219 -58 -27 -247 -72 -357 -86 -92 -12 -324 -10 -411 3
-423 63 -770 270 -1057 630 -58 73 -153 253 -190 362 -57 166 -74 283 -75 511
0 166 5 242 21 335 3 17 6 37 8 45 1 8 5 29 9 45 4 17 9 42 11 56 2 15 18 79
36 144 17 65 29 119 27 121 -4 5 -236 -65 -368 -111 -202 -71 -241 -85 -273
-99 -17 -8 -71 -31 -121 -51 -127 -51 -447 -210 -590 -293 -329 -189 -547
-336 -863 -582 -57 -44 -290 -239 -321 -268 -10 -9 -58 -53 -107 -97 -111 -99
-520 -507 -636 -634 l-86 -94 29 -49 c82 -139 258 -378 403 -547 272 -318 633
-627 1082 -929 133 -89 330 -212 340 -212 3 0 22 -11 43 -24 156 -99 620 -314
871 -403 217 -78 547 -176 662 -197 13 -2 41 -9 63 -14 22 -6 52 -13 67 -16
15 -2 63 -11 105 -20 71 -14 98 -18 188 -32 17 -3 53 -9 80 -14 28 -5 75 -12
105 -15 30 -3 64 -7 75 -9 11 -2 63 -7 115 -11 52 -4 111 -9 130 -10 310 -29
907 -19 1250 21 25 3 65 7 90 10 76 7 115 12 151 18 19 3 52 8 74 11 119 17
175 25 225 35 30 6 69 13 85 16 17 3 73 14 126 25 52 11 104 21 115 23 61 12
359 91 474 126 74 23 140 43 145 44 77 19 371 125 575 207 121 49 144 59 275
117 33 15 166 79 295 143 250 124 560 294 756 416 10 7 39 24 64 39 42 25 437
287 487 323 13 9 35 39 49 68 l25 51 0 594 c-1 326 -2 601 -2 611 0 23 8 28
-239 -148 -358 -256 -688 -467 -1050 -673 -287 -164 -697 -361 -1005 -484 -82
-32 -163 -65 -180 -73 -137 -60 -791 -256 -940 -281 -16 -3 -46 -9 -66 -15
-33 -8 -104 -23 -169 -35 -14 -2 -59 -11 -100 -19 -41 -8 -93 -17 -115 -20
-22 -3 -67 -10 -100 -15 -63 -9 -128 -17 -208 -25 -26 -3 -62 -7 -80 -9 -151
-20 -693 -27 -887 -13 -96 7 -112 9 -255 27 -45 6 -97 12 -117 15 -36 5 -156
24 -268 44 -30 5 -77 15 -105 21 -27 6 -61 14 -75 16 -60 11 -269 69 -430 120
-240 75 -387 134 -665 265 -253 119 -596 346 -810 535 -147 130 -175 179 -177
307 -3 240 5 976 11 991 7 19 8 19 22 0 37 -49 291 -271 499 -437 133 -106
394 -281 565 -379 327 -188 611 -310 990 -428 73 -22 301 -76 402 -95 16 -3
37 -7 49 -9 12 -2 45 -7 75 -11 30 -4 56 -8 59 -10 3 -2 42 -7 85 -10 44 -4
83 -9 86 -11 13 -8 271 -18 454 -18 246 0 378 8 590 35 44 6 96 13 115 15 154
19 520 100 715 159 66 20 127 38 135 40 35 9 317 109 375 134 57 24 79 34 190
82 111 49 395 190 475 237 19 11 72 42 118 68 46 27 94 55 107 62 42 22 394
261 495 335 388 286 717 575 1174 1029 l229 228 -78 118 c-98 148 -257 358
-359 476 -130 151 -422 434 -572 556 -442 359 -897 637 -1454 888 -218 99
-553 213 -860 293 -91 24 -381 86 -435 94 -22 3 -49 8 -61 10 -12 3 -39 7 -60
10 -21 3 -48 7 -59 10 -11 2 -47 6 -80 10 -33 3 -73 8 -90 10 -39 6 -103 13
-190 21 -38 3 -90 8 -115 11 -52 5 -757 12 -762 8z"/>
</g>
</svg>
